HIERARCHY
ROOT root
{
	OFFSET 0.000000 0.000000 0.000000
	CHANNELS 6 Xposition Yposition Zposition Zrotation Yrotation Xrotation
	JOINT lhip
	{
		OFFSET 0.058581 -0.082280 -0.017664
		CHANNELS 3 Zrotation Yrotation Xrotation
		JOINT lknee
		{
			OFFSET 0.043451 -0.386469 0.008037
			CHANNELS 3 Zrotation Yrotation Xrotation
			JOINT lankle
			{
				OFFSET -0.014790 -0.426874 -0.037428
				CHANNELS 3 Zrotation Yrotation Xrotation
				JOINT ltoe
				{
					OFFSET 0.041054 -0.060286 0.122042
					CHANNELS 3 Zrotation Yrotation Xrotation
					End Site
					{
						OFFSET 0.000000 0.000000 0.000000
					}
				}
			}
		}
	}
	JOINT rhip
	{
		OFFSET -0.060310 -0.090513 -0.013543
		CHANNELS 3 Zrotation Yrotation Xrotation
		JOINT rknee
		{
			OFFSET -0.043257 -0.383688 -0.004843
			CHANNELS 3 Zrotation Yrotation Xrotation
			JOINT rankle
			{
				OFFSET 0.019056 -0.420046 -0.034562
				CHANNELS 3 Zrotation Yrotation Xrotation
				JOINT rtoe
				{
					OFFSET -0.034840 -0.062106 0.130323
					CHANNELS 3 Zrotation Yrotation Xrotation
					End Site
					{
						OFFSET 0.000000 0.000000 0.000000
					}
				}
			}
		}
	}
	JOINT lowerback
	{
		OFFSET 0.004439 0.124404 -0.038385
		CHANNELS 3 Zrotation Yrotation Xrotation
		JOINT upperback
		{
			OFFSET 0.004488 0.137956 0.026820
			CHANNELS 3 Zrotation Yrotation Xrotation
			JOINT chest
			{
				OFFSET -0.002265 0.056032 0.002855
				CHANNELS 3 Zrotation Yrotation Xrotation
				JOINT lowerneck
				{
					OFFSET -0.013390 0.211636 -0.033468
					CHANNELS 3 Zrotation Yrotation Xrotation
					JOINT upperneck
					{
						OFFSET 0.010113 0.088937 0.050410
						CHANNELS 3 Zrotation Yrotation Xrotation
						End Site
						{
							OFFSET 0.000000 0.000000 0.000000
						}
					}
				}
				JOINT lclavicle
				{
					OFFSET 0.071702 0.114000 -0.018898
					CHANNELS 3 Zrotation Yrotation Xrotation
					JOINT lshoulder
					{
						OFFSET 0.122921 0.045205 -0.019046
						CHANNELS 3 Zrotation Yrotation Xrotation
						JOINT lelbow
						{
							OFFSET 0.255332 -0.015649 -0.022946
							CHANNELS 3 Zrotation Yrotation Xrotation
							JOINT lwrist
							{
								OFFSET 0.265709 0.012698 -0.007375
								CHANNELS 3 Zrotation Yrotation Xrotation
								End Site
								{
									OFFSET 0.000000 0.000000 0.000000
								}
							}
						}
					}
				}
				JOINT rclavicle
				{
					OFFSET -0.082954 0.112472 -0.023707
					CHANNELS 3 Zrotation Yrotation Xrotation
					JOINT rshoulder
					{
						OFFSET -0.113228 0.046853 -0.008472
						CHANNELS 3 Zrotation Yrotation Xrotation
						JOINT relbow
						{
							OFFSET -0.260127 -0.014369 -0.031269
							CHANNELS 3 Zrotation Yrotation Xrotation
							JOINT rwrist
							{
								OFFSET -0.269108 0.006794 -0.006027
								CHANNELS 3 Zrotation Yrotation Xrotation
								End Site
								{
									OFFSET 0.000000 0.000000 0.000000
								}
							}
						}
					}
				}
			}
		}
	}
}
MOTION
Frames: 16
Frame Time: 0.033333
-0.883802 -1.824676 0.971831 158.298823 -0.869267 88.646421 4.083093 -0.939582 -7.114186 -7.389290 -2.938709 22.264920 2.213683 -7.322804 -15.513549 0.000000 -0.000000 0.000000 -3.197790 -7.790201 4.200395 0.355951 -4.295456 9.058914 -4.487718 -3.305974 -17.038197 0.000000 -0.000000 0.000000 -2.627366 4.352223 -0.110386 1.042353 -2.237780 20.529337 4.029722 0.854877 -13.682671 -12.515301 12.122761 19.174545 -12.499894 32.384730 -23.367965 -24.921407 2.144363 13.534557 -65.911164 0.200225 9.620403 -160.288632 -65.619609 -167.248528 14.690444 -7.732740 -22.436734 17.433805 3.261058 18.971082 68.894595 5.014528 4.573375 -76.097192 75.335192 -71.750917 9.754147 10.599808 -41.662738 
-0.883472 -1.825112 0.970843 158.411070 -0.292494 88.824232 4.814681 1.605021 -7.786990 -7.334188 -3.577285 23.414209 2.025780 -8.808302 -16.228721 0.000000 -0.000000 0.000000 -2.446275 -8.075850 3.848253 0.460240 -2.853501 9.434501 -4.026948 -4.732072 -17.455402 0.000000 -0.000000 0.000000 -1.627733 3.795584 1.067540 0.144576 -1.409782 18.096515 4.852858 0.478934 -12.483123 -12.984561 10.754396 17.129028 -11.873352 34.064734 -20.740628 -24.603798 2.433344 12.869690 -66.252548 0.734762 8.775731 -157.412074 -64.998768 -169.313198 15.556778 -7.210115 -23.435283 16.712556 3.688027 18.463459 69.523177 4.162276 4.627174 -78.249408 76.734898 -73.535888 9.606740 10.331184 -39.679050 
-0.883387 -1.825134 0.970413 158.089940 -0.363469 89.101064 4.680936 0.748554 -8.588385 -7.831495 -3.464086 24.532971 2.719051 -7.389987 -16.651036 0.000000 -0.000000 0.000000 -2.493689 -7.773892 2.981260 0.667130 -2.888272 10.648515 -4.478599 -5.100859 -18.768194 0.000000 -0.000000 0.000000 -1.814653 3.902548 0.828044 0.236217 -1.310706 17.744724 4.829062 0.419493 -11.918450 -12.567929 10.965819 16.630685 -11.706631 33.910396 -20.096815 -24.296845 2.455236 12.896229 -66.600905 0.608180 9.093500 -157.230690 -64.980997 -168.975332 16.337367 -7.069913 -23.979249 16.552300 3.544309 18.490910 69.800147 4.719070 4.700410 -77.334402 76.431078 -72.274515 9.402134 9.983853 -40.594795 
-0.882857 -1.824205 0.969109 157.919885 -0.296054 89.161599 4.676710 0.535864 -9.140514 -8.304444 -3.742291 25.773939 3.116955 -6.538976 -17.281521 0.000000 -0.000000 0.000000 -2.479670 -7.612054 2.032446 0.762833 -2.951100 12.486642 -4.931152 -5.204206 -20.042582 0.000000 -0.000000 0.000000 -1.716287 3.757010 0.928955 0.296821 -1.338563 17.542153 4.536166 0.458895 -11.406975 -11.936733 11.666031 15.774000 -11.724659 33.595967 -19.632319 -23.839415 2.844873 12.359894 -66.771531 0.606000 9.207075 -156.483654 -64.753532 -169.249177 16.587917 -6.891424 -24.202551 16.517922 3.166634 18.177906 69.991931 5.176133 4.799920 -76.818852 76.389440 -71.592302 9.310679 9.658102 -41.244379 
-0.882191 -1.823568 0.968877 157.678009 -0.154749 89.022784 4.837452 1.017274 -9.582177 -8.564745 -3.676896 27.244865 3.252105 -6.456933 -18.057997 0.000000 -0.000000 0.000000 -2.310633 -7.297725 1.575567 0.808229 -2.900674 13.794088 -5.348713 -5.480535 -20.817596 0.000000 -0.000000 0.000000 -1.558862 3.618499 0.956068 0.278763 -1.233713 17.605801 4.506168 0.461004 -11.197479 -11.717393 11.554597 15.563189 -11.489756 33.511091 -19.142605 -23.849717 2.615213 12.418993 -66.973442 0.701228 9.018398 -157.295291 -64.649569 -168.315810 16.356048 -6.461737 -24.723548 16.607455 3.368159 18.365544 69.993960 5.533089 4.339279 -75.472773 76.192450 -70.544183 9.555305 9.588230 -41.984412 
-0.879982 -1.821196 0.968090 157.080519 0.157894 88.962011 5.339356 1.615566 -10.386409 -9.574720 -4.120530 29.723046 3.929276 -5.629330 -18.966663 0.000000 -0.000000 0.000000 -1.933878 -7.203957 1.165817 0.724797 -2.103796 15.151584 -5.955278 -5.082705 -21.848135 0.000000 -0.000000 0.000000 -1.366561 3.675482 0.905184 0.403230 -1.120486 17.308233 4.453933 0.504541 -10.754743 -11.500473 11.732964 15.068388 -11.097111 33.522155 -18.326176 -23.601944 2.717143 11.969839 -67.569145 0.562885 8.582019 -155.914100 -64.584839 -170.420858 14.639905 -3.587045 -25.548646 16.874311 3.101518 18.289412 69.607948 5.640304 3.826200 -73.637710 76.444296 -69.318647 10.060454 9.360845 -42.852253 
-0.876879 -1.815116 0.967265 155.949810 0.314413 87.997848 5.761548 2.126369 -9.724567 -10.765472 -4.194762 31.898191 3.985727 -4.731262 -20.664801 0.000000 -0.000000 0.000000 -2.031338 -7.185813 2.399210 1.082148 -0.971175 15.778091 -6.518402 -4.988325 -22.345516 0.000000 -0.000000 0.000000 -0.974468 3.806862 1.028884 0.335266 -0.926287 17.859150 4.197104 0.725447 -10.119044 -11.412726 11.629433 13.529795 -10.528618 33.218537 -17.008615 -23.589503 2.746619 11.243135 -67.657924 1.133916 8.553477 -155.536000 -64.495163 -170.832265 15.496932 -2.848085 -25.694765 16.989131 3.341771 18.037749 69.657737 5.503498 3.606836 -71.380423 76.451198 -67.449641 10.357133 9.175274 -42.960677 
-0.872900 -1.810801 0.966422 154.632245 0.664644 88.054747 6.610401 2.067983 -10.357801 -12.294043 -3.739074 34.363559 3.798589 -3.460931 -21.913231 0.000000 -0.000000 0.000000 -1.660468 -6.486475 2.352497 1.237125 -0.441422 16.462799 -6.227947 -5.049058 -24.130734 0.000000 -0.000000 0.000000 -0.770548 3.972708 0.642285 0.441909 -0.633433 18.038802 4.069312 0.685274 -9.831558 -10.867529 12.541266 12.744436 -11.138537 33.628343 -16.532360 -23.625886 2.980443 11.075701 -67.744295 1.664812 8.194929 -155.602039 -64.394479 -170.149468 15.832872 -2.540727 -25.292948 16.968957 3.105737 17.830446 69.682803 5.497679 3.552170 -68.470695 76.893356 -64.672676 10.630706 9.336649 -44.266311 
-0.868220 -1.804233 0.966219 152.986613 1.266959 87.377145 7.829853 2.464775 -9.795174 -14.174629 -3.556615 36.546576 3.437923 -1.954935 -23.145174 0.000000 -0.000000 0.000000 -1.002837 -6.005941 3.462394 1.462331 0.676965 16.698632 -6.551605 -5.347413 -24.817959 0.000000 -0.000000 0.000000 -0.224438 4.149363 0.554964 0.632627 -0.245210 19.064873 3.782064 0.991182 -10.000440 -10.834034 12.379809 10.973923 -10.570828 33.616916 -15.107514 -23.995820 2.642349 10.557307 -67.876809 1.468996 9.145064 -156.775334 -65.467705 -169.613022 18.727242 0.440531 -24.599056 17.320034 3.239688 17.648732 69.388731 5.476225 3.367465 -63.091912 76.218486 -60.486900 10.926560 9.029546 -44.731339 
-0.864234 -1.796222 0.964406 151.207555 1.759007 88.420804 8.343723 4.888081 -11.760152 -16.114313 -4.486244 40.702202 3.443373 -0.873248 -25.095649 0.000000 -0.000000 0.000000 -0.548567 -5.556698 2.365200 1.873205 1.634869 17.973462 -7.742056 -4.833621 -25.786486 0.000000 -0.000000 0.000000 0.489794 3.738730 -0.538693 0.312016 0.092606 18.504984 3.535898 0.952674 -9.045253 -11.118828 12.934836 8.389622 -11.628095 34.885053 -14.719196 -24.239277 2.714350 10.006491 -68.467981 2.064917 8.722893 -156.792019 -65.976081 -169.932899 21.160633 1.664522 -24.635910 17.320324 3.195585 17.319100 69.489569 5.768998 3.474315 -51.808528 76.674505 -49.331571 10.949853 9.079569 -44.241821 
-0.859007 -1.786871 0.962749 148.835599 1.806558 89.075547 9.165021 3.813542 -11.967588 -18.064044 -2.254171 42.000440 3.256167 1.077370 -25.140563 0.000000 -0.000000 0.000000 -0.668788 -4.224591 2.104703 2.173067 2.395921 18.474407 -7.953614 -4.933282 -27.126606 0.000000 -0.000000 0.000000 0.654701 3.897598 -1.806736 0.234473 0.272215 19.619059 3.095167 0.985999 -9.185809 -11.525066 13.566603 5.732800 -12.447060 34.675249 -15.085882 -24.194818 2.571643 9.534726 -69.044138 2.284385 9.029575 -157.804895 -66.372952 -168.693364 22.195177 2.518625 -23.409822 17.306971 3.423626 17.337434 70.052984 6.200643 3.783433 -44.908809 75.400727 -42.652628 11.945923 9.207643 -44.500332 
-0.854780 -1.777661 0.961368 147.305386 2.214574 89.865402 9.840221 5.067396 -13.079684 -20.118774 -2.137905 44.575851 2.330447 1.412322 -27.525556 0.000000 -0.000000 0.000000 -0.624633 -3.824307 1.777576 2.572391 2.966521 18.884704 -7.967118 -4.712325 -28.084628 0.000000 -0.000000 0.000000 1.165594 3.643485 -1.879276 0.131405 0.287881 19.379174 3.120259 0.964436 -9.361263 -12.528677 14.039304 3.260090 -13.793419 36.084898 -15.442166 -24.483107 1.742756 8.957562 -69.519826 2.656383 8.957332 -156.756343 -67.314628 -168.870130 23.499324 2.542102 -23.041078 16.824018 3.710752 16.908878 70.591217 5.663664 2.637222 -43.363119 74.149015 -43.231825 13.964424 10.716415 -49.050019 
-0.849084 -1.767332 0.959662 145.266996 2.767301 90.666793 10.837495 5.113090 -13.614396 -21.731226 -0.674779 46.362353 1.807060 1.916106 -28.619317 0.000000 -0.000000 0.000000 -0.258022 -2.916395 1.653452 2.571635 3.360407 19.017762 -8.413692 -4.532468 -28.851259 0.000000 -0.000000 0.000000 1.741959 3.858202 -3.271183 0.325696 0.007752 21.220465 2.810196 1.083992 -9.275525 -13.967710 15.934685 0.855218 -16.546616 36.998817 -18.160609 -24.360622 0.031901 7.755327 -70.167564 2.311435 9.498620 -155.753909 -68.756804 -169.449123 23.401819 2.901985 -22.329302 16.576196 4.412621 16.663293 71.315660 5.789576 1.967782 -43.344169 72.392129 -43.646463 15.863326 11.390652 -50.614688 
-0.845149 -1.756462 0.957099 142.948316 3.310818 92.144689 11.709819 5.772646 -14.889282 -23.503427 0.913003 47.927236 0.986296 2.382435 -29.501978 0.000000 -0.000000 0.000000 -0.178248 -2.130329 0.383235 2.718692 3.733274 19.569639 -8.277595 -4.454162 -29.829016 0.000000 -0.000000 0.000000 2.554829 3.938063 -3.107977 0.285253 0.315972 19.858823 2.848695 1.097419 -8.865336 -15.131672 16.872169 -2.615018 -18.284963 38.206533 -18.969797 -24.407170 -1.014340 6.879573 -70.731501 1.790227 9.995114 -152.631955 -70.251898 -172.043857 24.214645 3.071283 -21.529425 16.207738 4.275216 16.454561 71.833052 5.200129 1.741826 -41.205544 72.223594 -40.299084 17.042064 11.591143 -49.784670 
-0.841990 -1.741704 0.954073 141.287149 3.576069 93.396835 11.889834 6.384906 -15.881368 -24.815254 2.289594 49.399226 0.288046 2.742836 -30.022390 0.000000 -0.000000 0.000000 -0.872571 -1.149063 -0.012637 3.087193 3.936421 19.544570 -8.062044 -3.833935 -30.089495 0.000000 -0.000000 0.000000 3.350670 3.313139 -1.901511 0.335334 -0.021258 18.473269 2.677516 1.485894 -9.049127 -15.965280 19.128089 -6.470681 -19.911397 39.006480 -19.284584 -23.736042 -1.301800 4.867387 -71.792957 1.905031 10.885698 -146.822573 -71.826731 -177.376735 22.993479 2.657470 -21.113721 15.772950 3.838810 16.028485 71.720640 4.728922 1.228720 -42.662782 71.336931 -41.270564 19.307497 12.094238 -49.795918 
-0.841031 -1.725609 0.951341 139.642679 3.646298 94.914502 11.468803 7.199845 -17.257347 -25.685394 3.725760 51.033945 -0.456985 3.151820 -30.325855 0.000000 -0.000000 0.000000 -1.849478 -0.155724 -1.175824 3.394099 5.120368 20.129836 -7.897158 -3.670908 -30.242475 0.000000 -0.000000 0.000000 5.376709 1.000074 0.394719 -0.064154 -1.477315 14.606184 1.136218 2.386690 -8.689293 -17.060940 20.173128 -9.098668 -21.544904 40.483702 -20.993401 -22.388440 -0.446871 2.742279 -71.715749 3.526777 9.730337 -136.169252 -72.910760 173.136459 21.237756 1.628401 -20.984324 16.252845 5.376514 17.671316 71.428483 5.996249 0.025609 -45.722491 70.038569 -42.958966 21.843485 12.012056 -47.758059 
